<svg preserveAspectRatio="none" overflow="visible" style="display: block;" width="20" height="20" viewBox="0 0 20 20" fill="none" xmlns="http://www.w3.org/2000/svg">
<g id="ai-search-02">
<path id="Vector" d="M13.3333 13.75L16.6666 17.0833" stroke="#99A0AE" stroke-width="1.25" stroke-linecap="round" stroke-linejoin="round"/>
<path id="Vector_2" d="M15 9.58333C15 12.805 12.3883 15.4167 9.16667 15.4167C5.94501 15.4167 3.33333 12.805 3.33333 9.58333C3.33333 6.3617 5.94501 3.75003 9.16667 3.75003" stroke="#99A0AE" stroke-width="1.25" stroke-linecap="round" stroke-linejoin="round"/>
<path id="Vector_3" d="M12.9167 2.91669L13.1316 3.49755C13.4134 4.25921 13.5543 4.64004 13.8322 4.91785C14.11 5.19567 14.4908 5.33658 15.2525 5.61843L15.8333 5.83336L15.2525 6.04829C14.4908 6.33013 14.11 6.47106 13.8322 6.74887C13.5543 7.02668 13.4134 7.40751 13.1316 8.16917L12.9167 8.75L12.7017 8.16917C12.4199 7.40751 12.279 7.02668 12.0012 6.74887C11.7233 6.47106 11.3425 6.33013 10.5808 6.04829L10 5.83336L10.5808 5.61843C11.3425 5.33658 11.7233 5.19567 12.0012 4.91785C12.279 4.64004 12.4199 4.25921 12.7017 3.49755L12.9167 2.91669Z" stroke="#99A0AE" stroke-width="1.25" stroke-linecap="round" stroke-linejoin="round"/>
</g>
</svg>
